<?xml version="1.0" encoding="utf-8"?>
<!-- Uploaded to: SVG Repo, www.svgrepo.com, Generator: SVG Repo Mixer Tools -->
<svg fill="#000000" version="1.1" id="Layer_1" xmlns="http://www.w3.org/2000/svg" xmlns:xlink="http://www.w3.org/1999/xlink" 
	 width="800px" height="800px" viewBox="0 0 256 160" enable-background="new 0 0 256 160" xml:space="preserve">
<path d="M64.54,111.462c-12.78,0-23.11,10.34-23.11,23.11c0,12.78,10.33,23.11,23.11,23.11c12.77,0,23.11-10.33,23.11-23.11
	C87.65,121.802,77.31,111.462,64.54,111.462z M64.54,143.422c-4.85,0-8.85-4-8.85-8.85s4-8.85,8.85-8.85c4.85,0,8.85,4,8.85,8.85
	S69.39,143.422,64.54,143.422z M210.04,110.472c-12.77,0-23.11,10.34-23.11,23.12c0,12.77,10.34,23.11,23.11,23.11
	c12.78,0,23.12-10.34,23.12-23.11C233.16,120.812,222.82,110.472,210.04,110.472z M210.04,142.442c-4.85,0-8.85-4-8.85-8.85
	c0-4.86,4-8.86,8.85-8.86c4.86,0,8.86,4,8.86,8.86C218.9,138.442,214.9,142.442,210.04,142.442z M2,2.002v119.44
	c0,4.48,3.52,8.56,8,8.56h22c0.92,0,1.83-1.16,2-2c2.52-14.46,15.33-24.44,30.54-24.44c15.21,0,27.82,10.02,30.34,24.48
	c0.17,0.92,1.2,1.96,2.12,1.96h33v-128H2z M56.78,40.622c0,2.78-2.26,5.03-5.04,5.03v40.26c0,1.85-1.5,3.36-3.35,3.36
	s-3.36-1.51-3.36-3.36v-40.26c-2.78,0-5.03-2.25-5.03-5.03v-20.14h2.52v15.1h4.61v-15.1h2.52v15.1h4.61v-15.1h2.52V40.622z
	 M87.37,85.912c0,0.93-0.38,1.77-0.99,2.37c-0.6,0.61-1.44,0.99-2.37,0.99c-1.85,0-3.35-1.51-3.35-3.36v-26.84H77.3v-33.55
	c0-2.78,2.25-5.04,5.03-5.04c2.78,0,5.04,2.26,5.04,5.04V85.912z M252,113.002h-5v-22c0-7.4-5.52-13-13-13h-24
	c-0.5,0-1.1-0.27-1.44-0.61l-37.4-36.4c-1.68-1.68-3.72-2.91-6.16-2.99h-27v92h40c0.92,0,1.83-1.16,2-2
	c2.52-14.46,14.83-25.43,30.04-25.43c15.22,0,27.82,11.01,30.34,25.47c0.17,0.92,1.7,1.96,2.62,1.96h2c4.79,0,9-4.31,9-9.02v-6.22
	C254,113.832,253.01,113.002,252,113.002z M191,78.002h-41c-1.01,0-2-0.99-2-2v-25.82c0-1.01,0.99-2.18,2-2.18h13
	c0.5,0,1.52,0.55,1.94,0.89L192,75.002C193.01,76.262,192.6,78.002,191,78.002z"/>
</svg>